<?xml version="1.0" encoding="utf-8"?>
<!-- Generator: Adobe Illustrator 22.0.0, SVG Export Plug-In . SVG Version: 6.00 Build 0)  -->
<svg version="1.1" xmlns="http://www.w3.org/2000/svg" xmlns:xlink="http://www.w3.org/1999/xlink" x="0px" y="0px"
	 viewBox="0 0 32 32" style="enable-background:new 0 0 32 32;" xml:space="preserve">
<style type="text/css">
	.st0{display:none;}
	.st1{display:inline;fill:#FFF3E2;}
	.st2{display:inline;fill:none;stroke:#762940;stroke-width:1.5;stroke-linecap:round;stroke-miterlimit:10;}
	.st3{fill:#762940;}
	.st4{fill:#AD6846;}
	.st5{fill:none;stroke:#762940;stroke-width:1.5;stroke-linecap:round;stroke-miterlimit:10;}
	.st6{fill:none;stroke:#762940;stroke-width:0.75;stroke-miterlimit:10;}
	.st7{fill:none;stroke:#762940;stroke-width:0.75;stroke-linecap:round;stroke-miterlimit:10;}
	.st8{fill:#B06943;}
	.st9{fill:none;stroke:#FFF3E0;stroke-linecap:round;stroke-miterlimit:10;}
	.st10{fill:none;stroke:#B06943;stroke-width:0.5;stroke-linecap:round;stroke-miterlimit:10;}
	.st11{fill:none;stroke:#B06943;stroke-width:0.5;stroke-miterlimit:10;}
</style>
<g id="Layer_1" class="st0">
	<circle class="st1" cx="16" cy="16" r="15.3"/>
</g>
<g id="Layer_2" class="st0">
</g>
<g id="Layer_4">
</g>
<g id="Layer_5">
	<g>
		<circle class="st8" cx="22.9" cy="18.4" r="4.6"/>
		<g>
			<path class="st8" d="M30,11.5h-9.4c-0.4,0-0.7-0.2-0.8-0.6L17,2c-0.2-0.6-1-0.6-1.2,0l-2.9,8.9c-0.1,0.3-0.4,0.6-0.8,0.6H2.8
				c-0.6,0-0.8,0.8-0.4,1.1l7.6,5.5c0.3,0.2,0.4,0.6,0.3,0.9l-2.9,8.9c-0.2,0.6,0.5,1,0.9,0.7l7.7-5.6c0.2-0.2,0.5-0.2,0.7,0
				l7.7,5.6c0.5,0.3,1.1-0.1,0.9-0.7l-1.1-3.4c-0.4,0.1-0.9,0.2-1.4,0.2c-3.5,0-6.3-2.8-6.3-6.3c0-3.5,2.8-6.3,6.3-6.3
				c2,0,3.7,0.9,4.9,2.3l2.6-1.9C30.9,12.3,30.6,11.5,30,11.5z"/>
		</g>
		<path class="st9" d="M20.3,19l1.3,1.4c0.1,0.1,0.3,0.1,0.4,0l3.5-3.2"/>
	</g>
</g>
</svg>
