<?xml version="1.0" encoding="utf-8"?>
<!-- Generator: Adobe Illustrator 22.0.0, SVG Export Plug-In . SVG Version: 6.00 Build 0)  -->
<svg version="1.1" xmlns="http://www.w3.org/2000/svg" xmlns:xlink="http://www.w3.org/1999/xlink" x="0px" y="0px"
	 viewBox="0 0 32 32" style="enable-background:new 0 0 32 32;" xml:space="preserve">
<style type="text/css">
	.st0{display:none;}
	.st1{display:inline;fill:#FFF3E2;}
	.st2{display:inline;fill:none;stroke:#762940;stroke-width:1.5;stroke-linecap:round;stroke-miterlimit:10;}
	.st3{fill:#762940;}
	.st4{fill:#AD6846;}
	.st5{fill:none;stroke:#762940;stroke-width:1.5;stroke-linecap:round;stroke-miterlimit:10;}
	.st6{fill:none;stroke:#762940;stroke-width:0.75;stroke-miterlimit:10;}
	.st7{fill:none;stroke:#762940;stroke-width:0.75;stroke-linecap:round;stroke-miterlimit:10;}
	.st8{fill:#B06943;}
	.st9{fill:none;stroke:#FFF3E0;stroke-linecap:round;stroke-miterlimit:10;}
	.st10{fill:none;stroke:#B06943;stroke-width:0.5;stroke-linecap:round;stroke-miterlimit:10;}
	.st11{fill:none;stroke:#B06943;stroke-width:0.5;stroke-miterlimit:10;}
</style>
<g id="Layer_1" class="st0">
	<circle class="st1" cx="16" cy="16" r="15.3"/>
</g>
<g id="Layer_2" class="st0">
</g>
<g id="Layer_4">
</g>
<g id="Layer_5">
	<g>
		<g>
			<ellipse transform="matrix(0.9701 -0.2425 0.2425 0.9701 -1.3307 6.3405)" class="st8" cx="25.1" cy="8.6" rx="1.6" ry="1.9"/>
			<line class="st10" x1="27" y1="11.1" x2="25.9" y2="9.7"/>
			<path class="st8" d="M24.8,12.2l3.8-2.4c0.1-0.1,0.3,0,0.3,0.1l1,5.8c0,0.1-0.1,0.2-0.2,0.1l-4.9-3.3
				C24.6,12.5,24.7,12.3,24.8,12.2z"/>
			<path class="st8" d="M26,19.9l3.7-4c0.1-0.1,0.2-0.1,0.3,0.1l1.4,5.3c0,0.1-0.1,0.2-0.2,0.2L26,20.1C25.9,20.1,25.9,20,26,19.9z"
				/>
			<path class="st10" d="M25.1,12.5l-1.9,1.2c-0.1,0.1-0.3,0.1-0.4-0.1c-0.3-0.4-0.6-0.8-1-1.2c-0.6-0.7-1.2-1.5-1.8-2.2
				c-0.2-0.2-0.4-0.5-0.6-0.7c-0.1-0.1-0.2-0.2-0.3-0.3c-0.1-0.1-0.1-0.2-0.2-0.1c-0.2,0.1-0.5,0.3-0.7,0.4"/>
			<path class="st10" d="M28.6,10.6L28,5.8c0-0.2,0.1-0.3,0.2-0.4l2-1.2c0.2-0.1,0.2-0.1,0.1-0.2c-0.1-0.1-0.2-0.2-0.2-0.4
				c-0.1-0.2-0.2-0.4-0.4-0.5"/>
			<path class="st10" d="M27.3,20.2l-2.5,1.6c-0.1,0-0.1,0.1,0,0.2c0,0,0,0.1,0.1,0.1c0,0.1,0.1,0.2,0.1,0.3
				c0.1,0.1,0.1,0.3,0.2,0.4c0.1,0.2,0.2,0.4,0.3,0.5c0.1,0.2,0.2,0.4,0.3,0.6c0.1,0.2,0.2,0.4,0.3,0.7c0.1,0.2,0.2,0.4,0.3,0.6
				c0.1,0.2,0.2,0.4,0.3,0.6c0.1,0.2,0.2,0.4,0.3,0.5c0.1,0.1,0.1,0.3,0.2,0.4c0,0.1,0.1,0.2,0.1,0.3c0,0,0,0.1,0,0.1
				c0,0.1-0.1,0.1-0.2,0.2c-0.1,0.1-0.2,0.1-0.3,0.2c-0.1,0.1-0.2,0.1-0.3,0.2"/>
			<path class="st10" d="M28.6,27.4c0.2-0.1,0.4-0.2,0.6-0.3c0.2-0.1,0.3-0.2,0.5-0.3c0,0,0.1,0,0.1-0.1c0,0-0.1-0.1-0.1-0.1
				c-0.1-0.1-0.1-0.1-0.2-0.2c-0.2-0.2-0.4-0.4-0.6-0.7c-0.2-0.3-0.5-0.5-0.7-0.8c-0.2-0.2-0.4-0.5-0.6-0.7
				c-0.1-0.1-0.2-0.3-0.4-0.4c0,0,0,0,0,0c0-0.1,0-0.1,0-0.2l3.3-2.7"/>
		</g>
		<g>
			<ellipse transform="matrix(0.5856 -0.8106 0.8106 0.5856 -2.4609 11.7228)" class="st8" cx="10.2" cy="8.3" rx="2" ry="1.7"/>
			<ellipse transform="matrix(0.3867 -0.9222 0.9222 0.3867 -2.05 12.3993)" class="st8" cx="8.3" cy="7.7" rx="0.9" ry="0.6"/>
			<line class="st10" x1="8" y1="11.1" x2="9.2" y2="9.5"/>
			<path class="st8" d="M4.9,16.6l1-6.5C5.9,10,6,10,6.1,10l4.2,1.8c0.1,0,0.1,0.2,0,0.3l-5.2,4.7C5.1,16.9,4.9,16.8,4.9,16.6z"/>
			<path class="st8" d="M4.9,16.7l-0.3,6.9c0,0.1,0.1,0.2,0.2,0.1c1.4-0.6,2.7-1.2,4.1-1.9c0.2-0.1,0.5-0.2,0.7-0.4
				c0.2-0.1,0.2-0.1,0-0.3c-0.4-0.4-0.8-0.9-1.3-1.3c-1-1.1-2.1-2.1-3.2-3.1c0,0-0.1-0.1-0.1-0.1C5,16.6,4.9,16.6,4.9,16.7z"/>
			<path class="st10" d="M5.4,23l3.1,0.4c0.2,0,0.3,0.2,0.2,0.4c-0.4,1.1-0.9,2.1-1.3,3.2c-0.1,0.1-0.3,0.6-0.3,0.7
				c0,0.1,0.3,0.1,0.4,0.1c0.2,0.1,0.5,0.1,0.7,0.2"/>
			<path class="st10" d="M8.3,21.7c0-0.1,2.2,0.9,2.9,1.3c0.1,0.1,0.2,0.2,0.1,0.4c-0.4,1-0.9,2-1.3,2.9c-0.1,0.3-0.6,1.1-0.5,1.3
				c0.1,0.1,0.6,0.2,0.7,0.2"/>
			<path class="st10" d="M9.7,12.2l-0.2,5.2c0,0.1,0.1,0.2,0.2,0.1c1.7-0.6,3.3-1.2,5-1.8c0.4-0.1,0.5-0.2,0.8,0
				c0.2,0.1,0.3,0.2,0.5,0.3"/>
			<path class="st10" d="M6.2,10.6L4.7,8.5c-0.1-0.1-0.3-0.1-0.4,0c-0.9,0.7-1.8,1.5-2.7,2.2c-0.2,0.2-0.5,0.4-0.7,0.6
				c-0.1,0.1-0.3,0.2-0.3,0.3c0,0.1,0.2,0.3,0.3,0.4c0.2,0.2,0.3,0.4,0.5,0.7"/>
		</g>
		<circle class="st8" cx="18.3" cy="24.7" r="1.1"/>
		<circle class="st10" cx="18.3" cy="24.7" r="4.2"/>
		<line class="st10" x1="18.3" y1="20.6" x2="18.3" y2="28.9"/>
		<line class="st10" x1="15.1" y1="22.1" x2="21.5" y2="27.4"/>
		<line class="st10" x1="14.2" y1="24.8" x2="22.5" y2="24.7"/>
		<line class="st10" x1="15.4" y1="27.7" x2="21.2" y2="21.7"/>
	</g>
</g>
</svg>
